<svg width="66" height="65" viewBox="0 0 66 65" fill="none" xmlns="http://www.w3.org/2000/svg">
<circle cx="33" cy="32.5" r="32.5" fill="white"/>
<g clip-path="url(#clip0_1_240)">
<path d="M47.8522 42.4496L47.1906 39.9806C47.1045 39.6591 46.774 39.4681 46.4527 39.5545C46.1312 39.6407 45.9405 39.971 46.0266 40.2924L46.3163 41.3734L42.0885 38.9617V28.9385C42.0885 28.7229 41.9732 28.5236 41.7863 28.4162L33.0507 23.3938V18.6211L33.8297 19.4001C34.065 19.6354 34.4465 19.6354 34.6818 19.4001C34.9171 19.1648 34.9171 18.7833 34.6818 18.5479L32.8742 16.7404C32.6387 16.5039 32.253 16.5086 32.0221 16.7404L30.2145 18.5479C29.9792 18.7832 29.9792 19.1647 30.2145 19.4001C30.4498 19.6353 30.8313 19.6353 31.0667 19.4001L31.8457 18.6211V23.3949L23.1687 28.417C22.9826 28.5247 22.868 28.7235 22.868 28.9385V38.8643L18.5807 41.3006L18.8708 40.2177C18.9569 39.8962 18.7662 39.5659 18.4447 39.4798C18.1232 39.3935 17.7929 39.5843 17.7068 39.9058L17.0453 42.3755C16.9615 42.6882 17.1488 43.0363 17.4894 43.1182L19.9405 43.775C20.2645 43.8618 20.593 43.6678 20.6785 43.349C20.7646 43.0276 20.5739 42.6972 20.2524 42.6111L19.2069 42.3309L23.4619 39.913L32.1804 45.0469C32.367 45.1568 32.5988 45.1582 32.7871 45.0496L34.9973 43.7755C35.2856 43.6093 35.3845 43.2409 35.2184 42.9526C35.0522 42.6644 34.6837 42.5654 34.3954 42.7316L32.4894 43.8304L24.6706 39.2262L32.4102 34.8282L40.299 39.3282L39.0921 40.024C38.8038 40.1902 38.7049 40.5586 38.871 40.8469C39.0373 41.1352 39.4058 41.2342 39.694 41.0679L41.5118 40.02L45.6922 42.4047L44.6452 42.6852C44.3238 42.7713 44.133 43.1017 44.2192 43.4231C44.3049 43.743 44.6342 43.9358 44.9571 43.8492L47.3719 43.2022C47.7167 43.1413 47.9447 42.7948 47.8522 42.4496V42.4496ZM40.8834 38.2742L33.0506 33.8061V24.7838L40.8834 29.2871V38.2742ZM24.073 29.286L31.8456 24.7873V33.7628L24.073 38.1796V29.286Z" fill="#DC7000"/>
<path d="M37.0273 42.4724C37.3601 42.4724 37.6299 42.2026 37.6299 41.8699C37.6299 41.5371 37.3601 41.2673 37.0273 41.2673C36.6946 41.2673 36.4248 41.5371 36.4248 41.8699C36.4248 42.2026 36.6946 42.4724 37.0273 42.4724Z" fill="#DC7000"/>
</g>
<defs>
<clipPath id="clip0_1_240">
<rect width="30.8475" height="30.8475" fill="white" transform="translate(17.0254 15.4237)"/>
</clipPath>
</defs>
</svg>
