<svg width="22" height="21" viewBox="0 0 22 21" fill="none" xmlns="http://www.w3.org/2000/svg">
<g id="arrow 5" clip-path="url(#clip0_1_218)">
<g id="Group">
<g id="Group_2">
<path id="Vector" d="M1.76222 13.974C1.84814 13.9879 1.9351 13.9944 2.02211 13.9933L16.8372 13.9933L16.5141 14.1435C16.1984 14.293 15.9111 14.4964 15.6652 14.7445L11.5107 18.899C10.9635 19.4214 10.8716 20.2616 11.2928 20.8899C11.7831 21.5594 12.7232 21.7048 13.3928 21.2145C13.4469 21.1749 13.4983 21.1317 13.5466 21.0852L21.0593 13.5725C21.6464 12.9861 21.647 12.0347 21.0605 11.4476C21.0601 11.4472 21.0597 11.4468 21.0593 11.4464L13.5466 3.93375C12.959 3.34781 12.0077 3.34912 11.4217 3.93671C11.3756 3.98296 11.3325 4.03217 11.2928 4.08401C10.8716 4.7123 10.9635 5.55255 11.5107 6.07487L15.6577 10.2369C15.8781 10.4576 16.1316 10.6426 16.409 10.7853L16.8597 10.9882L2.10479 10.9882C1.33723 10.9597 0.663813 11.4958 0.519616 12.2503C0.386782 13.0694 0.943098 13.8411 1.76222 13.974Z" fill="#DC7000"/>
</g>
</g>
</g>
<defs>
<clipPath id="clip0_1_218">
<rect width="21" height="21" fill="white" transform="matrix(-1 0 0 -1 21.5 21)"/>
</clipPath>
</defs>
</svg>
