<svg width="66" height="65" viewBox="0 0 66 65" fill="none" xmlns="http://www.w3.org/2000/svg">
<circle cx="33" cy="32.5" r="32.5" fill="white"/>
<g clip-path="url(#clip0_1_222)">
<path d="M46.2203 18.1779H20.8813C18.7528 18.1803 17.0278 19.9053 17.0254 22.0338V44.0677C17.0278 46.1963 18.7528 47.9213 20.8813 47.9237H46.2203C48.3489 47.9213 50.0738 46.1963 50.0762 44.0677V22.0338C50.0738 19.9053 48.3489 18.1803 46.2203 18.1779ZM48.9745 44.0677C48.9727 45.5881 47.7407 46.8202 46.2203 46.822H20.8813C19.361 46.8202 18.1289 45.5881 18.1271 44.0677V22.0338C18.1289 20.5135 19.361 19.2814 20.8813 19.2796H46.2203C47.7407 19.2814 48.9727 20.5135 48.9745 22.0338V44.0677Z" fill="#DC7000"/>
<path d="M46.2203 22.5847H20.8813C19.9686 22.5847 19.2288 23.3246 19.2288 24.2372V44.0677C19.2288 44.9804 19.9686 45.7203 20.8813 45.7203H46.2203C47.133 45.7203 47.8728 44.9804 47.8728 44.0677V24.2372C47.8728 23.3246 47.133 22.5847 46.2203 22.5847ZM33.5508 33.5267L27.5515 30.2966L33.5508 27.0664L39.5501 30.2966L33.5508 33.5267ZM40.161 31.2187V37.6779L34.1016 40.9422V34.483L40.161 31.2187ZM32.9999 34.483V40.9422L26.9406 37.6779V31.2187L32.9999 34.483ZM20.3305 24.2372C20.3305 23.933 20.5771 23.6864 20.8813 23.6864H32.9999V26.1101L26.1287 29.8118C26.1215 29.8157 26.1133 29.8173 26.1061 29.8217C25.9395 29.9218 25.838 30.1022 25.8389 30.2966V34.9138L20.3305 37.668V24.2372ZM46.7711 44.0677C46.7711 44.372 46.5245 44.6186 46.2203 44.6186H20.8813C20.5771 44.6186 20.3305 44.372 20.3305 44.0677V38.8997L25.8389 36.1454V38.0084C25.839 38.211 25.9503 38.3971 26.1287 38.4932L33.2897 42.3491C33.4527 42.4368 33.6489 42.4368 33.8119 42.3491L40.9729 38.4932C41.1513 38.3971 41.2626 38.211 41.2627 38.0084V36.1454L46.7711 38.8997V44.0677ZM46.7711 37.668L41.2627 34.9138V30.2966C41.2626 30.1028 41.1607 29.9233 40.9944 29.8239C40.9872 29.8195 40.979 29.8179 40.9718 29.814L34.1016 26.1101V23.6864H46.2203C46.5245 23.6864 46.7711 23.933 46.7711 24.2372V37.668Z" fill="#DC7000"/>
<path d="M20.3304 21.483C20.6346 21.483 20.8812 21.2364 20.8812 20.9322C20.8812 20.628 20.6346 20.3813 20.3304 20.3813C20.0262 20.3813 19.7795 20.628 19.7795 20.9322C19.7795 21.2364 20.0262 21.483 20.3304 21.483Z" fill="#DC7000"/>
<path d="M22.5338 21.483C22.838 21.483 23.0846 21.2364 23.0846 20.9322C23.0846 20.628 22.838 20.3813 22.5338 20.3813C22.2295 20.3813 21.9829 20.628 21.9829 20.9322C21.9829 21.2364 22.2295 21.483 22.5338 21.483Z" fill="#DC7000"/>
<path d="M24.7371 21.483C25.0413 21.483 25.288 21.2364 25.288 20.9322C25.288 20.628 25.0413 20.3813 24.7371 20.3813C24.4329 20.3813 24.1863 20.628 24.1863 20.9322C24.1863 21.2364 24.4329 21.483 24.7371 21.483Z" fill="#DC7000"/>
<path d="M38.5084 21.483H46.2202C46.5245 21.483 46.7711 21.2364 46.7711 20.9322C46.7711 20.628 46.5245 20.3813 46.2202 20.3813H38.5084C38.2041 20.3813 37.9575 20.628 37.9575 20.9322C37.9575 21.2364 38.2041 21.483 38.5084 21.483Z" fill="#DC7000"/>
</g>
<defs>
<clipPath id="clip0_1_222">
<rect width="33.0508" height="33.0508" fill="white" transform="translate(17.0254 16.5254)"/>
</clipPath>
</defs>
</svg>
