<svg width="66" height="65" viewBox="0 0 66 65" fill="none" xmlns="http://www.w3.org/2000/svg">
<circle cx="33" cy="32.5" r="32.5" fill="white"/>
<g clip-path="url(#clip0_1_147)">
<path d="M39.2441 17.6271H26.7559C25.5521 17.6271 24.572 18.6072 24.572 19.811V45.1886C24.572 46.3928 25.5521 47.3729 26.7559 47.3729H39.2436C40.4478 47.3729 41.428 46.3928 41.428 45.189V19.811C41.428 18.6072 40.4478 17.6271 39.2441 17.6271ZM25.5635 21.5932H40.4364V40.4322H25.5635V21.5932ZM26.7559 18.6186H39.2436C39.9015 18.6186 40.4364 19.1536 40.4364 19.811V20.6017H25.5635V19.811C25.5635 19.1536 26.0985 18.6186 26.7559 18.6186ZM39.2441 46.3814H26.7559C26.0985 46.3814 25.5635 45.8464 25.5635 45.189V41.4237H40.4364V45.189C40.4364 45.8464 39.9015 46.3814 39.2441 46.3814Z" fill="#DC7000"/>
<path d="M33.0001 41.9195C31.9065 41.9195 31.0171 42.8089 31.0171 43.9025C31.0171 44.9962 31.9065 45.8856 33.0001 45.8856C34.0938 45.8856 34.9832 44.9962 34.9832 43.9025C34.9832 42.8089 34.0938 41.9195 33.0001 41.9195ZM33.0001 44.8941C32.4533 44.8941 32.0086 44.4494 32.0086 43.9025C32.0086 43.3557 32.4533 42.911 33.0001 42.911C33.547 42.911 33.9917 43.3557 33.9917 43.9025C33.9917 44.4494 33.547 44.8941 33.0001 44.8941Z" fill="#DC7000"/>
<path d="M31.017 20.1059H33.0001C33.2742 20.1059 33.4958 19.8843 33.4958 19.6102C33.4958 19.336 33.2742 19.1144 33.0001 19.1144H31.017C30.7428 19.1144 30.5212 19.336 30.5212 19.6102C30.5212 19.8843 30.7428 20.1059 31.017 20.1059Z" fill="#DC7000"/>
<path d="M34.4875 20.1059H34.9832C35.2574 20.1059 35.479 19.8843 35.479 19.6102C35.479 19.336 35.2574 19.1144 34.9832 19.1144H34.4875C34.2133 19.1144 33.9917 19.336 33.9917 19.6102C33.9917 19.8843 34.2133 20.1059 34.4875 20.1059Z" fill="#DC7000"/>
<path d="M46.1933 19.8923C45.9995 19.6984 45.6861 19.6984 45.4923 19.8923C45.2985 20.0861 45.2985 20.3994 45.4923 20.5933C47.3445 22.4454 47.3445 25.4592 45.4923 27.3118C45.2985 27.5057 45.2985 27.819 45.4923 28.0128C45.589 28.1095 45.7159 28.1581 45.8428 28.1581C45.9697 28.1581 46.0966 28.1095 46.1933 28.0128C48.4322 25.7745 48.4322 22.1311 46.1933 19.8923Z" fill="#DC7000"/>
<path d="M44.1057 21.0206C43.9118 20.8268 43.5985 20.8268 43.4047 21.0206C43.2108 21.2145 43.2108 21.5278 43.4047 21.7216C44.0179 22.3349 44.3555 23.1519 44.3555 24.0215C44.3555 24.891 44.0179 25.7076 43.4047 26.3208C43.2108 26.5147 43.2108 26.828 43.4047 27.0218C43.5013 27.1185 43.6282 27.1671 43.7552 27.1671C43.8821 27.1671 44.009 27.1185 44.1057 27.0218C44.9063 26.2217 45.3471 25.1558 45.3471 24.0215C45.3471 22.8872 44.9068 21.8208 44.1057 21.0206Z" fill="#DC7000"/>
<path d="M20.5078 20.5933C20.7017 20.3994 20.7017 20.0861 20.5078 19.8923C20.314 19.6984 20.0007 19.6984 19.8068 19.8923C17.568 22.1311 17.568 25.774 19.8068 28.0128C19.9035 28.1095 20.0304 28.1581 20.1573 28.1581C20.2843 28.1581 20.4112 28.1095 20.5078 28.0128C20.7017 27.819 20.7017 27.5057 20.5078 27.3118C18.6552 25.4597 18.6552 22.4459 20.5078 20.5933Z" fill="#DC7000"/>
<path d="M22.5955 20.8838C22.4016 20.6899 22.0883 20.6899 21.8945 20.8838C21.0938 21.6839 20.6531 22.7498 20.6531 23.8841C20.6531 25.0184 21.0938 26.0843 21.8945 26.885C21.9911 26.9817 22.1181 27.0303 22.245 27.0303C22.3719 27.0303 22.4988 26.9817 22.5955 26.885C22.7893 26.6912 22.7893 26.3778 22.5955 26.184C21.9822 25.5707 21.6446 24.7537 21.6446 23.8841C21.6446 23.0146 21.9817 22.1981 22.5955 21.5848C22.7888 21.3914 22.7888 21.0776 22.5955 20.8838Z" fill="#DC7000"/>
</g>
<defs>
<clipPath id="clip0_1_147">
<rect width="29.7458" height="29.7458" fill="white" transform="translate(18.1272 17.6271)"/>
</clipPath>
</defs>
</svg>
