<svg width="66" height="65" viewBox="0 0 66 65" fill="none" xmlns="http://www.w3.org/2000/svg">
<circle cx="33" cy="32.5" r="32.5" fill="white"/>
<g clip-path="url(#clip0_1_166)">
<path d="M19.6879 29.3051C19.8295 29.3059 19.9655 29.2503 20.066 29.1507L22.1959 27.0207C22.4047 26.8119 22.4047 26.4734 22.1959 26.2646C21.9871 26.0558 21.6486 26.0558 21.4398 26.2646L19.3099 28.3945C19.209 28.4945 19.1523 28.6306 19.1523 28.7726C19.1523 28.9146 19.209 29.0507 19.3099 29.1507C19.4103 29.2503 19.5464 29.3059 19.6879 29.3051Z" fill="#DC7000"/>
<path d="M19.6879 32.5C19.8295 32.5008 19.9655 32.4452 20.066 32.3456L25.3908 27.0207C25.5996 26.8119 25.5996 26.4734 25.3908 26.2646C25.182 26.0558 24.8435 26.0558 24.6347 26.2646L19.3099 31.5894C19.209 31.6894 19.1523 31.8255 19.1523 31.9675C19.1523 32.1095 19.209 32.2456 19.3099 32.3456C19.4103 32.4452 19.5464 32.5008 19.6879 32.5Z" fill="#DC7000"/>
<path d="M47.3771 16.5254H33.5325C32.6502 16.5254 31.935 17.2406 31.935 18.1229V23.9802H19.6878C18.2174 23.9802 17.0254 25.1722 17.0254 26.6427V40.4873C17.0254 41.9577 18.2174 43.1497 19.6878 43.1497H25.5452V45.2797H23.9477C23.0655 45.2797 22.3502 45.9949 22.3502 46.8771C22.3502 47.7594 23.0655 48.4746 23.9477 48.4746H47.3771C48.2593 48.4746 48.9745 47.7594 48.9745 46.8771V18.1229C48.9745 17.2406 48.2593 16.5254 47.3771 16.5254ZM19.6878 25.0452H38.8573C39.7396 25.0452 40.4548 25.7604 40.4548 26.6427V39.4223H18.0904V26.6427C18.0904 25.7604 18.8056 25.0452 19.6878 25.0452ZM18.0904 40.4873H40.4548C40.4548 41.3695 39.7396 42.0847 38.8573 42.0847H19.6878C18.8056 42.0847 18.0904 41.3695 18.0904 40.4873ZM26.6101 43.1497H31.935V45.2797H26.6101V43.1497ZM33.5325 47.4096H23.9477C23.6536 47.4096 23.4152 47.1712 23.4152 46.8771C23.4152 46.583 23.6536 46.3446 23.9477 46.3446H34.5974C34.8915 46.3446 35.1299 46.583 35.1299 46.8771C35.1299 47.1712 34.8915 47.4096 34.5974 47.4096H33.5325ZM47.9096 46.8771C47.9096 47.1712 47.6712 47.4096 47.3771 47.4096H36.099C36.2716 46.9214 36.1969 46.3799 35.8986 45.9566C35.6002 45.5334 35.1152 45.2811 34.5974 45.2797H33V43.1497H38.8573C40.3277 43.1497 41.5197 41.9577 41.5197 40.4873V26.6427C41.5197 25.1722 40.3277 23.9802 38.8573 23.9802H33V18.1229C33 17.8288 33.2384 17.5904 33.5325 17.5904H47.3771C47.6712 17.5904 47.9096 17.8288 47.9096 18.1229V46.8771Z" fill="#DC7000"/>
<path d="M45.7796 19.1879H35.1299C34.5417 19.1879 34.0649 19.6647 34.0649 20.2529V21.3178C34.0649 21.906 34.5417 22.3828 35.1299 22.3828H45.7796C46.3678 22.3828 46.8446 21.906 46.8446 21.3178V20.2529C46.8446 19.6647 46.3678 19.1879 45.7796 19.1879ZM35.1299 21.3178V20.2529H45.7796V21.3178H35.1299Z" fill="#DC7000"/>
<path d="M44.7146 27.1751C45.5969 27.1751 46.3121 26.4599 46.3121 25.5777C46.3121 24.6954 45.5969 23.9802 44.7146 23.9802C43.8324 23.9802 43.1172 24.6954 43.1172 25.5777C43.1172 26.4599 43.8324 27.1751 44.7146 27.1751ZM44.7146 25.0452C45.0087 25.0452 45.2471 25.2836 45.2471 25.5777C45.2471 25.8717 45.0087 26.1102 44.7146 26.1102C44.4206 26.1102 44.1822 25.8717 44.1822 25.5777C44.1822 25.2836 44.4206 25.0452 44.7146 25.0452Z" fill="#DC7000"/>
<path d="M46.3121 29.8376C46.3121 28.9553 45.5969 28.2401 44.7146 28.2401C43.8324 28.2401 43.1172 28.9553 43.1172 29.8376C43.1172 30.7198 43.8324 31.435 44.7146 31.435C45.5969 31.435 46.3121 30.7198 46.3121 29.8376ZM44.7146 30.3701C44.4206 30.3701 44.1822 30.1317 44.1822 29.8376C44.1822 29.5435 44.4206 29.3051 44.7146 29.3051C45.0087 29.3051 45.2471 29.5435 45.2471 29.8376C45.2471 30.1317 45.0087 30.3701 44.7146 30.3701Z" fill="#DC7000"/>
<path d="M37.7925 44.2147C37.4984 44.2147 37.26 44.4531 37.26 44.7472V45.8121C37.26 46.1062 37.4984 46.3446 37.7925 46.3446C38.0866 46.3446 38.325 46.1062 38.325 45.8121V44.7472C38.325 44.4531 38.0866 44.2147 37.7925 44.2147Z" fill="#DC7000"/>
<path d="M39.9224 44.2147C39.6283 44.2147 39.3899 44.4531 39.3899 44.7472V45.8121C39.3899 46.1062 39.6283 46.3446 39.9224 46.3446C40.2165 46.3446 40.4549 46.1062 40.4549 45.8121V44.7472C40.4549 44.4531 40.2165 44.2147 39.9224 44.2147Z" fill="#DC7000"/>
<path d="M42.0523 44.2147C41.7582 44.2147 41.5198 44.4531 41.5198 44.7472V45.8121C41.5198 46.1062 41.7582 46.3446 42.0523 46.3446C42.3463 46.3446 42.5847 46.1062 42.5847 45.8121V44.7472C42.5847 44.4531 42.3463 44.2147 42.0523 44.2147Z" fill="#DC7000"/>
<path d="M44.1821 44.2147C43.8881 44.2147 43.6497 44.4531 43.6497 44.7472V45.8121C43.6497 46.1062 43.8881 46.3446 44.1821 46.3446C44.4762 46.3446 44.7146 46.1062 44.7146 45.8121V44.7472C44.7146 44.4531 44.4762 44.2147 44.1821 44.2147Z" fill="#DC7000"/>
<path d="M46.312 44.2147C46.0179 44.2147 45.7795 44.4531 45.7795 44.7472V45.8121C45.7795 46.1062 46.0179 46.3446 46.312 46.3446C46.6061 46.3446 46.8445 46.1062 46.8445 45.8121V44.7472C46.8445 44.4531 46.6061 44.2147 46.312 44.2147Z" fill="#DC7000"/>
</g>
<defs>
<clipPath id="clip0_1_166">
<rect width="31.9492" height="31.9492" fill="white" transform="translate(17.0254 16.5254)"/>
</clipPath>
</defs>
</svg>
