<svg width="66" height="65" viewBox="0 0 66 65" fill="none" xmlns="http://www.w3.org/2000/svg">
<circle cx="33" cy="32.5" r="32.5" fill="white"/>
<g clip-path="url(#clip0_1_189)">
<path d="M21.9057 27.2411H13.7205V29.565H21.9057C22.5464 29.565 23.0677 30.0863 23.0677 30.727C23.0677 31.3676 22.5464 31.8889 21.9057 31.8889H17.2063C15.2842 31.8889 13.7205 33.4526 13.7205 35.3747V38.8606H16.0443V35.3747C16.0443 34.734 16.5656 34.2128 17.2063 34.2128H21.9057C23.8278 34.2128 25.3916 32.649 25.3916 30.727C25.3916 28.8049 23.8278 27.2411 21.9057 27.2411Z" fill="#DC7000"/>
<path d="M34.1318 27.2411C32.2097 27.2411 30.646 28.8049 30.646 30.727V35.3747C30.646 36.0154 30.1247 36.5367 29.484 36.5367H24.2295V38.8606H29.484C31.4061 38.8606 32.9699 37.2968 32.9699 35.3747V30.727C32.9699 30.0863 33.4911 29.565 34.1318 29.565H39.3864V27.2411H34.1318Z" fill="#DC7000"/>
<path d="M51.0575 34.2126V29.565C51.0575 28.2836 50.015 27.2411 48.7336 27.2411C48.2935 27.2411 47.8647 27.3651 47.4935 27.5995L40.1346 32.2472C39.4559 32.6758 39.0508 33.4106 39.0508 34.2128C39.0508 35.4942 40.0933 36.5367 41.3747 36.5367H48.7336V38.8606H51.0575V36.5367H53.3814V34.2128L51.0575 34.2126ZM48.7336 34.2126L41.3755 34.2121L48.7336 29.565V34.2126Z" fill="#DC7000"/>
</g>
<defs>
<clipPath id="clip0_1_189">
<rect width="39.661" height="39.661" fill="white" transform="translate(13.7205 13.2203)"/>
</clipPath>
</defs>
</svg>
