<svg width="66" height="65" viewBox="0 0 66 65" fill="none" xmlns="http://www.w3.org/2000/svg">
<circle cx="33" cy="32.5" r="32.5" fill="white"/>
<g clip-path="url(#clip0_1_208)">
<path d="M35.0671 40.9055C33.3811 41.4681 31.5213 41.468 29.8305 40.9053C29.3567 40.7475 28.8452 41.0038 28.6876 41.4773C28.53 41.9509 28.7861 42.4626 29.2597 42.6203C30.2894 42.963 31.3703 43.1342 32.4509 43.1342C33.5316 43.1342 34.6119 42.9628 35.6392 42.62C36.1126 42.462 36.3684 41.9502 36.2103 41.4767C36.0524 41.0033 35.5406 40.7477 35.0671 40.9055V40.9055Z" fill="#DC7000"/>
<path d="M42.9768 23.5315C42.5921 20.7727 40.2232 18.5951 37.2892 18.5951H36.2568V18.5309C36.2568 18.0318 35.8522 17.6271 35.3531 17.6271H29.5451C29.046 17.6271 28.6414 18.0318 28.6414 18.5309V18.5951H27.6091C24.6997 18.5951 22.3275 20.7422 21.924 23.5308C20.23 23.9163 18.9614 25.4337 18.9614 27.2428V34.9868C18.9614 37.4634 20.9787 38.4728 21.8951 38.6906C22.3089 44.2659 26.9904 48.4746 32.4491 48.4746C38.0159 48.4746 42.5925 44.1544 43.0027 38.6908C45.378 38.1269 45.9368 35.9719 45.9368 34.9869V27.2429C45.9369 25.4347 44.6695 23.9179 42.9768 23.5315V23.5315ZM36.2568 20.4025H37.2891C39.8462 20.4025 40.9025 22.4932 41.1221 23.4351H36.2568V20.4025ZM30.4489 19.4346H34.4494V23.4351H30.4489V19.4346ZM27.6091 20.4025H28.6414V23.4351H23.7798C24.366 20.9796 26.5905 20.4025 27.6091 20.4025V20.4025ZM32.4491 46.6671C27.9886 46.6671 24.1757 43.288 23.7188 38.7946H28.1754C29.2844 38.7946 30.3695 38.3452 31.1524 37.5616C31.1571 37.557 31.1617 37.5523 31.1662 37.5475C31.5062 37.215 31.9727 37.0246 32.4491 37.0246C32.9257 37.0246 33.3921 37.215 33.7321 37.5476C33.7366 37.5523 33.7412 37.557 33.7459 37.5616C34.5288 38.3452 35.6139 38.7946 36.7229 38.7946H41.1791C40.7253 43.2109 36.9833 46.6671 32.4491 46.6671V46.6671ZM44.1294 34.9869C44.1294 36.1054 43.2178 36.9871 42.1291 36.9871H36.7229C36.0968 36.9871 35.4843 36.7364 35.0391 36.2986C35.0342 36.2934 35.0293 36.2884 35.0243 36.2833C34.3467 35.6058 33.4082 35.2172 32.4492 35.2172C31.4903 35.2172 30.5517 35.6058 29.8741 36.2833C29.8691 36.2883 29.8641 36.2934 29.8593 36.2985C29.414 36.7364 28.8015 36.9871 28.1754 36.9871H22.7691C21.6839 36.9871 20.7688 36.1091 20.7688 34.9869V27.2429C20.7688 26.1399 21.6662 25.2426 22.7691 25.2426H42.1291C43.232 25.2426 44.1293 26.14 44.1293 27.2429V34.9869H44.1294Z" fill="#DC7000"/>
</g>
<defs>
<clipPath id="clip0_1_208">
<rect width="30.8475" height="30.8475" fill="white" transform="translate(17.0254 17.6271)"/>
</clipPath>
</defs>
</svg>
